HIERARCHY
ROOT base
{
	OFFSET 0.0 0.0 0.0
	CHANNELS 6 Xposition Yposition Zposition Zrotation Yrotation Xrotation
	JOINT root
	{
		OFFSET 0 0 0
		CHANNELS 6 Xposition Yposition Zposition Zrotation Yrotation Xrotation
		JOINT chest
		{
			OFFSET 0 4.72302 0
			CHANNELS 3 Zrotation Yrotation Xrotation
			JOINT neck
			{
				OFFSET 0 4.47788 0
				CHANNELS 3 Zrotation Yrotation Xrotation
				End Site
				{
					OFFSET 0.0 0.0 0.0
				}
			}
			JOINT right_shoulder
			{
				OFFSET -0.481 4.87 3.6622
				CHANNELS 3 Zrotation Yrotation Xrotation
				JOINT right_elbow
				{
					OFFSET 0 -5.49576 0
					CHANNELS 3 Zrotation Yrotation Xrotation
					JOINT right_wrist
					{
						OFFSET 0 -5.17894 0
						CHANNELS 3 Zrotation Yrotation Xrotation
						End Site
						{
							OFFSET 0.0 0.0 0.0
						}
					}
				}
			}
			JOINT left_shoulder
			{
				OFFSET -0.481 4.87 -3.6622
				CHANNELS 3 Zrotation Yrotation Xrotation
				JOINT left_elbow
				{
					OFFSET 0 -5.49576 0
					CHANNELS 3 Zrotation Yrotation Xrotation
					JOINT left_wrist
					{
						OFFSET 0 -5.17894 0
						CHANNELS 3 Zrotation Yrotation Xrotation
						End Site
						{
							OFFSET 0.0 0.0 0.0
						}
					}
				}
			}
		}
		JOINT right_hip
		{
			OFFSET 0 0 1.69774
			CHANNELS 3 Zrotation Yrotation Xrotation
			JOINT right_knee
			{
				OFFSET 0 -8.43092 0
				CHANNELS 3 Zrotation Yrotation Xrotation
				JOINT right_ankle
				{
					OFFSET 0 -8.1974 0
					CHANNELS 3 Zrotation Yrotation Xrotation
					End Site
					{
						OFFSET 0.0 0.0 0.0
					}
				}
			}
		}
		JOINT left_hip
		{
			OFFSET 0 0 -1.69774
			CHANNELS 3 Zrotation Yrotation Xrotation
			JOINT left_knee
			{
				OFFSET 0 -8.43092 0
				CHANNELS 3 Zrotation Yrotation Xrotation
				JOINT left_ankle
				{
					OFFSET 0 -8.1974 0
					CHANNELS 3 Zrotation Yrotation Xrotation
					End Site
					{
						OFFSET 0.0 0.0 0.0
					}
				}
			}
		}
	}
	JOINT red_arrow
	{
		OFFSET 0 0 0
		CHANNELS 3 Zrotation Yrotation Xrotation
		End Site
		{
			OFFSET 0.0 0.0 0.0
		}
	}
	JOINT blue_arrow
	{
		OFFSET 0 0 0
		CHANNELS 3 Zrotation Yrotation Xrotation
		End Site
		{
			OFFSET 0.0 0.0 0.0
		}
	}
}
MOTION
Frames: 17
Frame Time: 0.0333333333333333
0 18.08466 0 0 0 0 0 0 0 0 -90 0 0 0 0 0 0 0 0 0 -90 0 0 0 0 0 0 0 0 90 0 0 0 0 0 0 0 0 0 0 0 0 0 0 0 0 0 0 0 0 0 0 0 0 0 0 0 0 0 0
-0.293468204885721 0 -0.115358887985349 0 0.523843280425256 0 0 17.5672796487808 0 -3.1203204265176 3.41661147422839E-16 0.920146838654406 7.27317444152008 -2.60535355585029 1.76901121279712 -19.9711568926445 -6.18284517154856 9.04445719966674 8.72042943187679 -1.46120516169673 -9.76187798790101 9.79635078879982 0 0 0 0 0 5.86010595214493 -7.69020943840715 11.588768821266 3.91944087596199 0 0 0 0 0 -1.27641385794194 0.57959529781478 -2.63538892725337 -2.44479129476861 0 0 6.84846541488147 -2.38530510397956 1.64123375775735 5.24221287719949 -5.72140544241627 2.03158395460304 -0.938832233141584 0 0 -1.43689863289184 6.20914861963437 -3.21856515306356 0 0 0 0 0 0
-0.599070473015308 0 -0.172052464075387 0 0.533141256179219 0 0 17.568159198761 0 -4.12853993154424 0.17620311350747 0.55610272311189 7.05911830367419 -2.23842988381027 3.85437006190293 -19.5847147954536 -5.15759692969652 8.60777018578846 6.91965525043514 -6.01089754566117 -15.0106370387505 8.95694017659912 0 0 0 0 0 1.44686416013287 -6.43168798034906 17.5206488778839 2.15537846383201 0 0 0 0 0 1.98591975871548 -0.325929307467775 -2.50317087774265 -4.84603415716286 0 0 6.94959376275901 -1.63541075669976 1.9480029890153 7.92083048624981 -4.83313923664265 2.12802952589476 -2.08619739871965 0 0 -1.93309610803769 5.03130543792287 -3.02307218450109 0 0 0 0 0 0
-0.940289078652859 0 -0.189148939016741 0 0.555851072936565 0 0 17.5590766310692 0 -5.48472700771781 0.429511123031073 0.0232644908051683 6.714838234783 -1.58771775725224 4.9374246432216 -18.3207745767326 -3.90334411558475 7.84575006880617 6.52588974756327 -11.1262299640726 -21.0113650121618 7.68975310913322 0 0 0 0 0 -2.68825998391682 -4.66895389454726 24.9753035638183 0.477282199977972 0 0 0 0 0 5.55511857489957 -0.355317718639326 -2.06792146783712 -7.03771080756525 0 0 6.91534063479313 -1.81550611140944 2.00586983961296 10.904494378655 -3.86995970804101 2.51843278688361 -2.87572372431717 0 0 -2.72457871100488 3.69830580174992 -2.94254114620183 0 0 0 0 0 0
-1.35134696960449 0 -0.203231710009277 0 0.593533957994665 0 0 17.5368331193924 0 -7.3299482626151 0.710124393475365 -0.548527357265199 5.47661255689308 -0.863276315286011 5.36429883146622 -16.5913372909022 -2.74445452095088 6.64154525441079 7.18324442624044 -16.3333973892273 -28.7337527512299 5.53838866209907 0 0 0 0 0 -6.71788968833913 -0.758930766995477 33.3541846025293 -0.000418183115651116 0 0 0 0 0 9.95316423166127 -0.561672860646938 -1.63980632208294 -9.44426734369036 0 0 6.75740123642614 -1.91632047915006 2.06895069898558 14.8861769851426 -2.77997840680814 2.70446737597372 -3.96438095937974 0 0 -3.81149316956692 3.46459903270163 -2.60114569493709 0 0 0 0 0 0
-1.84440867304802 0 -0.214307092875242 0 0.663411222380882 0 0 17.4864934206009 0 -9.73938080507368 1.30853961585583 -1.14593857341819 3.13331215236051 -0.42440458926378 5.12839983312684 -14.7977383112774 -1.76353049220042 4.92910588278887 7.47891712372542 -21.7361699373397 -37.66356246081 1.82209169931842 0 0 0 0 0 -10.6908438177966 6.0344538731383 41.5413207671125 -0.000308204990867719 0 0 0 0 0 15.5985931158192 -1.50767415704888 -1.38824330700524 -12.7404235758111 0 0 6.8018447258534 -1.68175827746108 2.13799450794737 20.7166150619681 -1.97646068807421 2.72126374064247 -6.95996276424299 0 0 -4.56289458118119 3.12076284563772 -2.16431660285112 0 0 0 0 0 0
-2.43081954717636 0 -0.236564671993256 0 0.764972128933664 0 0 17.3675765275955 0 -12.5354252546891 1.88369159611271 -1.27291486667406 -0.528015425808166 0.0110143127795076 3.70017148785524 -13.0115759515372 -1.09580523916783 2.59514184532978 5.70417785751058 -29.659026635857 -46.3662003003464 -0.00128901623699392 0 0 0 0 0 -14.0444159614207 16.4417708393112 48.3323198104366 -0.000211414096764158 0 0 0 0 0 23.2382323173025 -2.99959475344218 -1.98216042979914 -18.534035916626 0 0 7.76694991512456 -0.734092288185715 2.22569423248781 29.1849311072388 -1.57105465958798 2.27663080344456 -13.8040812512943 0 0 -4.83241311288314 2.04692468461152 -1.86634317155718 0 0 0 0 0 0
-3.07766003608704 0 -0.271951825916767 0 0.895042985695933 0 0 17.1220674991608 0 -15.2590583088909 2.3843231479149 -0.744801787573793 -4.80881780070531 -0.10324766900001 1.07206483981738 -11.4239227915591 -0.62242301962613 -0.329776598405084 2.57766393961347 -40.7492913624199 -53.9250517658295 -4.64754496985527E-06 0 0 0 0 0 -15.3678857399366 31.0328816902567 53.1535306774956 -8.15864316794423E-05 0 0 0 0 0 32.4208366072509 -4.68915696775064 -3.71435708348223 -26.8148975021942 0 0 9.72099132944822 1.04708598824583 2.2596922443587 39.690197442212 -1.74607491585424 1.2203187556126 -24.0949454199659 0 0 -5.96428905227515 0.670864924617559 -1.76393309035898 0 0 0 0 0 0
-3.73869950175285 0 -0.297518162894994 0 1.05470522007198 0 0 16.7308374762535 0 -17.5559579930739 2.89253250896429 0.171079004626104 -8.82102021127367 -1.33526942809057 -2.23040339088196 -10.1372947667602 -0.0581994085058046 -3.34612420757694 -0.465004236908545 -53.5929552227762 -59.8381020869839 -0.00086717258767858 0 0 0 0 0 -12.8814592324239 48.5434558423566 57.4253334816559 -1.58214631629969E-06 0 0 0 0 0 42.1810878699843 -6.11260662616842 -6.21097617484137 -36.3645213676057 0 0 11.8180783307117 3.25224596047855 2.07180099818815 50.3440634706469 -2.82977454920294 -0.0780147784693443 -34.7714856116323 0 0 -8.88767979741404 -2.37032121938995 -2.08940405201753 0 0 0 0 0 0
-4.39977046251297 0 -0.285811522230506 0 1.2743199588351 0 0 16.22500218153 0 -20.0173711625648 3.92141537687073 0.962225208879747 -11.1857998058524 -3.91427020968106 -5.30161514273659 -8.99631801285146 0.550633823187825 -5.84164860686749 -2.63497248653524 -65.9698623902431 -63.2579591390614 -0.01866748730092 0 0 0 0 0 -2.29713302882085 65.2543904912986 66.1473849997181 -6.89261801330027E-06 0 0 0 0 0 51.7727956071459 -6.37792838338858 -8.63809706896266 -45.1044041087973 0 0 13.971075604431 4.19038442480764 1.7974941645718 60.2577974841512 -4.8719226126534 -1.67888753848895 -42.8519477394051 0 0 -12.2984597175557 -5.51865866656792 -2.7413938170029 0 0 0 0 0 0
-5.01484860181808 0 -0.208961562812328 0 1.58676773935198 0 0 15.6686955571175 0 -22.7843239610969 5.47621089970065 0.766754952959776 -11.8264702622094 -7.28027466458456 -7.04595897869675 -7.75899314072772 0.92087340821437 -6.93406168967294 -6.06093145337838 -74.7566531577842 -59.8841257830703 -5.88212047412012E-06 0 0 0 0 0 25.4723042163339 75.6155348294966 88.2873837181944 -1.5622239324415E-06 0 0 0 0 0 60.7811612162456 -5.33394200689983 -9.82680841379704 -52.88877753605 0 0 15.4586236890284 2.87554676379962 1.68876444213528 69.1041804469193 -6.81332438419857 -3.16732825470901 -49.8895390186599 0 0 -12.6948485655393 -7.83077050191298 -3.39263312104113 0 0 0 0 0 0
-5.51473605632782 0 -0.0514904964715242 0 1.98680355788823 0 0 15.0873072385788 0 -25.7282624171811 6.854729218071 -1.08607264673205 -10.3766030813826 -10.6435303204654 -6.96619024810832 -6.57702003101049 0.972541083194678 -6.33892901826412 -17.3567548805269 -75.6161870025957 -42.0495341904092 0.0564974838649207 0 0 0 0 0 46.481258230444 76.9704907020262 100.506475774858 -1.85869745418575E-07 0 0 0 0 0 68.6935148680236 -3.53687419601992 -8.72098931084147 -59.7252982914234 0 0 16.5369056991639 -1.06963753834445 1.9903091201091 76.0609600526948 -8.19779427880506 -4.13795785483996 -55.8791777886542 0 0 -7.06572945476098 -5.711395958964 -4.43398354302544 0 0 0 0 0 0
-5.86531323194504 0 0.153124796971679 0 2.39784264953634 0 0 14.4391035556793 0 -27.4827304158971 6.93753864985626 -4.50632918911425 -7.84135506157451 -12.7889568883267 -4.87473859222024 -4.83001008720727 0.813446102496 -4.33514756185218 -21.9211388102523 -65.7601078235863 -24.3001704286279 4.14605246535785 0 0 0 0 0 26.4757856703674 70.3083253072977 69.3836754486222 0.0664983415631673 0 0 0 0 0 74.8569472172309 -1.57031276160699 -4.88385804732108 -66.3023196696604 0 0 17.5231380382639 -6.26595666804286 3.0448282172631 80.575831276242 -9.07221375900215 -3.53739209477583 -60.5587111437592 0 0 2.67008140242322 0.894760464671537 -4.42087919107884 0 0 0 0 0 0
-6.12210516929626 0 0.270086763799191 0 2.75389104710614 0 0 13.7417152166367 0 -25.8667301521561 6.09252832056784 -7.7201451242162 -5.57643047210264 -12.8161898530622 -1.69439427623049 -2.53397980772615 1.03804612627069 -1.37726244633612 -11.2324004532479 -45.2114099339142 -15.4175108645271 10.24190281138 0 0 0 0 0 11.3283721278049 47.4638087963821 41.1841569394572 2.84392962061758 0 0 0 0 0 78.5142796231853 0.662740234800769 0.246963583611794 -74.0793096624203 0 0 16.7963097886893 -11.3808822729859 5.30270027322226 83.2874262832542 -10.8129091586184 -2.15251503391782 -66.6085170501521 0 0 9.10285942323478 2.60233825601231 -3.67569514450295 0 0 0 0 0 0
-6.34091126322746 0 0.208874472975731 0 3.06624481448547 0 0 13.1058051109314 0 -19.8385734872664 5.5848068906615 -8.46373007564131 -2.14573338602376 -11.1303226187446 0.0530381286842197 -0.261903375768518 1.87520916791743 2.24960045960548 7.87562650703306 -18.2557459445229 -7.84069292506272 16.1101025254787 0 0 0 0 0 13.6048898930823 13.5610052614799 28.0597497092478 9.81691904971167 0 0 0 0 0 77.5282992800317 2.92126224755731 4.67610136521753 -81.4110259628088 0 0 16.2183134377099 -17.2534440932688 6.99747576442774 82.4191170357125 -11.7327409263693 -1.91867078127991 -73.0765286092358 0 0 10.3981828905804 2.49074187202485 -3.48499507979326 0 0 0 0 0 0
-6.44871094822884 0 0.0917346544563771 0 3.35774169368296 0 0 12.5374368786812 0 -10.5433329395929 5.44550096666892 -7.52758784016346 2.00312093591539 -7.37703105264805 -0.141377753104991 2.05208944963231 2.40766021830085 5.54951862147682 32.126040874149 8.64190589832686 -0.201612787033708 26.1440926709762 0 0 0 0 0 27.036587197756 -22.1805927839598 20.6650089968694 21.070605957376 0 0 0 0 0 70.1214329846486 3.72401857624852 7.05726420457366 -84.1686055571747 0 0 23.1688606197698 -24.4015932186383 6.2633400705245 77.2400876658038 -12.2227340564547 -2.7566383834089 -78.5636293808572 0 0 11.756069068227 3.86290742112013 -3.76194706714453 0 0 0 0 0 0
-6.16515853330493 0 0.00839734748005867 0 3.67442553129457 0 0 12.4627339601517 0 0.808207620585078 6.0163986968592 -7.34593033521694 5.91292951345577 -3.36994629561422 -0.133670160045971 1.65639205793711 2.8591577292403 6.20520992676165 57.442335948456 28.1039777018703 3.40408932594008 40.4233339611291 0 0 0 0 0 51.4895884554125 -51.3488161002053 12.5502414773208 35.5126294384704 0 0 0 0 0 58.1225120901819 1.66231564930276 6.56769168034712 -85.4671884429342 0 0 25.1163841949046 -22.4193800485942 5.85626180225585 66.0102023356123 -13.2131489083817 -2.50515740237184 -81.0995146951429 0 0 14.0321144559347 4.49840785172729 -3.77501271426961 0 0 0 0 0 0
